PathFileType	4	(X/Y/Z)	C:\Users\WrightLab\Desktop\Jo\P3_21.trc
DataRate	CameraRate	NumFrames	NumMarkers	Units	OrigDataRate	OrigDataStartFrame	OrigNumFrames
100.00	100.00	       23	19	mm	100.00	461	       614
Frame#	Time	Headset_Front			Headset_Back			Headset_Left			Headset_Right			Left_Shoulder			Right_Shoulder			Sternum			C7			Left Elbow			Right Elbow			Left Wrist			Right Wrist			Left ASIS			Right ASIS			S2			Left Knee			Right Knee			Left Ankle			Right Ankle			
		X1	Y1	Z1	X2	Y2	Z2	X3	Y3	Z3	X4	Y4	Z4	X5	Y5	Z5	X6	Y6	Z6	X7	Y7	Z7	X8	Y8	Z8	X9	Y9	Z9	X10	Y10	Z10	X11	Y11	Z11	X12	Y12	Z12	X13	Y13	Z13	X14	Y14	Z14	X15	Y15	Z15	X16	Y16	Z16	X17	Y17	Z17	X18	Y18	Z18	X19	Y19	Z19	

461	4.600	-721.99243	1575.34851	-1117.81653	-741.50525	1342.93335	-1072.24097	-758.38501	1502.88367	-1262.17480				-885.85620	1279.11096	-1195.60034	-558.03638	1295.50012	-1039.68958	-671.33069	1167.91772	-1233.84119				-939.60645	947.49170	-1249.84412	-492.24356	952.39764	-982.76746	-863.28101	781.05884	-1353.61597	-422.38794	780.56140	-1118.52625							-735.39734	890.92157	-990.93842				-524.62354	408.02634	-1222.88599				-508.60367	90.23883	-1326.55835	
462	4.610	-718.47211	1574.05859	-1124.60559	-736.48767	1340.02039	-1079.78638	-754.24207	1501.78174	-1269.27295				-881.52234	1277.08093	-1202.58057	-554.15662	1293.45874	-1046.99207	-667.18298	1166.79138	-1241.45959				-935.11639	945.68182	-1257.58948	-491.08783	950.50928	-991.72247	-858.30029	780.72375	-1363.44824	-419.59665	777.46997	-1122.89233							-731.61761	889.09314	-998.14679				-523.46722	406.13287	-1235.24316				-506.80820	88.15646	-1335.05444	
463	4.620	-714.95752	1572.80212	-1131.38062	-733.19360	1338.90210	-1087.44604							-877.30359	1275.80981	-1210.36938	-550.25323	1291.74048	-1054.12634	-662.87781	1165.84424	-1249.07483				-930.77838	944.64270	-1266.29211	-486.91882	947.82593	-998.82727	-854.35144	779.56207	-1370.80176	-416.60043	773.32953	-1128.38306							-727.85065	886.83179	-1007.01819				-518.84875	403.98691	-1240.82141				-505.51892	84.94415	-1341.02722	
464	4.630	-711.41315	1571.40637	-1138.01965	-728.69019	1337.44470	-1094.44250							-872.98230	1274.17847	-1217.75439	-546.24377	1290.22144	-1061.07495	-658.50330	1164.83362	-1257.09070				-926.41394	943.60095	-1274.35864	-483.22205	945.83350	-1006.02032				-413.65707	771.48810	-1135.65613							-724.92236	885.10193	-1016.22369				-517.18604	402.89215	-1250.98059				-504.95120	81.45985	-1343.06445	
465	4.640	-707.79651	1569.73352	-1144.04126	-724.19281	1335.34851	-1101.81787							-869.69452	1273.24634	-1225.88843	-542.36609	1288.14429	-1068.06714	-654.10437	1163.43286	-1264.79724				-921.68713	941.50012	-1281.81311	-478.62555	943.97400	-1012.30585													-721.50299	883.95447	-1025.85303				-513.41968	400.58163	-1261.50098				-504.52216	77.27143	-1345.44177	
466	4.650	-704.26398	1568.26208	-1150.43335	-720.59937	1333.26379	-1108.77173							-865.79688	1273.58887	-1233.10046	-538.09436	1286.45459	-1075.10474	-649.53137	1162.16968	-1272.55249				-916.95288	940.61310	-1289.42090	-475.43222	942.23718	-1020.46094													-717.74359	882.63879	-1033.61243				-509.54294	400.39328	-1266.88831				-503.95914	73.27070	-1349.53699	
467	4.660	-700.77869	1567.01721	-1156.89429	-716.32239	1331.82397	-1116.16248							-861.49359	1272.44556	-1240.73169	-534.21002	1285.33643	-1082.57629	-644.61554	1161.53479	-1280.46887				-912.18567	938.88477	-1296.62427	-472.06467	940.39465	-1028.61865													-714.23621	880.72308	-1042.28638				-507.23569	395.31143	-1279.07935				-502.18777	71.62226	-1355.81677	
468	4.670				-712.28644	1330.76428	-1123.26343							-855.28619	1269.49597	-1249.20227	-530.12567	1283.60474	-1088.93860	-639.77917	1160.76453	-1288.49390				-907.33514	937.58752	-1304.02405	-469.35361	938.40961	-1035.28845													-710.52228	878.24994	-1052.31433				-502.41379	395.81699	-1286.18201				-500.84265	71.25413	-1366.36926	
469	4.680				-707.32813	1329.94360	-1130.77954							-850.84497	1269.50854	-1257.73120	-526.34961	1282.78723	-1096.19446	-634.88354	1160.01074	-1296.37610				-902.36401	936.55518	-1311.40552	-464.89014	937.18243	-1042.61694													-706.65033	877.48846	-1062.25354				-498.30566	394.42697	-1293.20837				-497.95715	67.75060	-1373.25940	
470	4.690				-703.08606	1329.24731	-1138.53784							-846.16461	1268.25342	-1266.03625	-521.63849	1280.78589	-1103.13538							-897.39447	935.12476	-1318.39673	-461.46152	935.35413	-1048.99536													-702.59973	876.30798	-1070.74939				-495.02191	394.41925	-1300.27087				-495.71652	68.29232	-1371.19922	
471	4.700				-697.76208	1327.58740	-1145.96265							-841.32465	1267.73499	-1274.01147	-517.27069	1280.00781	-1109.79456							-892.56042	934.75055	-1325.58472	-457.55276	933.77850	-1056.78979													-699.15149	875.72894	-1079.45947				-490.41595	395.39191	-1309.13940				-493.55276	65.51222	-1378.50647	
472	4.710				-694.40948	1327.98193	-1152.79980							-836.38330	1268.05249	-1282.90076	-513.28241	1279.50281	-1116.57849							-886.89819	934.08722	-1333.00256	-453.79333	933.59723	-1064.96326													-694.92926	875.25848	-1089.50244				-486.68460	396.70444	-1319.68127				-490.65512	65.81922	-1382.63232	
473	4.720				-689.01990	1327.97192	-1160.41284							-831.59149	1268.39197	-1291.51794	-509.43509	1279.02673	-1123.51782							-881.52112	933.41681	-1339.81665	-449.28766	933.20062	-1070.95813													-691.84216	874.69940	-1098.84192				-480.76447	399.11801	-1326.26392				-487.73642	65.23289	-1386.02368	
474	4.730				-685.31738	1328.89160	-1168.87366							-826.75323	1269.21191	-1300.74146	-505.24393	1278.59424	-1129.77563							-875.94836	934.49622	-1347.32996	-447.26831	932.10455	-1077.19116													-688.00763	874.72424	-1107.22656				-476.31244	398.39081	-1335.26990				-485.54788	66.03859	-1384.96265	
475	4.740				-681.11261	1328.61731	-1176.15796							-821.60089	1270.33313	-1310.03284	-501.75275	1278.96753	-1136.69031							-870.56067	934.24365	-1352.47107	-444.03976	932.62842	-1084.15002													-684.84619	875.32013	-1116.28064				-472.14865	399.05945	-1344.02490				-484.38425	66.13878	-1386.35022	
476	4.750				-677.62726	1329.74377	-1184.11682							-816.62616	1272.33643	-1320.76221	-498.49063	1279.68774	-1142.52930							-864.78986	936.16083	-1361.07764	-439.43869	933.28644	-1090.16589													-680.89722	875.61920	-1126.40942				-468.12360	400.78436	-1350.00598				-483.91675	64.61417	-1392.48340	
477	4.760				-675.16418	1331.67651	-1192.59949							-811.31671	1273.09033	-1329.04517	-495.04584	1280.13831	-1149.08984							-859.41095	936.70203	-1367.51831	-438.86279	932.85956	-1099.11011													-677.49738	877.47424	-1134.87476				-464.33026	401.99484	-1355.41370				-482.42426	66.38764	-1389.90588	
478	4.770				-670.09576	1331.99927	-1200.52954							-806.50458	1275.86963	-1340.70154	-491.69150	1281.13147	-1155.34363							-854.00439	938.02173	-1374.33350	-435.62247	934.58459	-1104.67822													-674.76721	878.64874	-1143.50720				-461.36902	403.02884	-1361.07886				-482.28635	65.49228	-1391.43665	
479	4.780				-666.28827	1333.08911	-1207.78589							-801.91583	1277.52295	-1349.31921	-489.15546	1282.42957	-1161.42468							-848.56793	939.80811	-1382.37280	-433.17572	936.97369	-1110.21985													-671.51093	879.15356	-1152.49255				-458.04608	403.40182	-1364.07300				-480.47964	66.57324	-1391.43652	
480	4.790				-664.88556	1335.27234	-1216.84888							-797.30518	1278.27515	-1356.03406	-486.42285	1283.49292	-1167.83875							-843.23071	941.05157	-1389.09253	-430.57220	936.52783	-1115.68005													-669.12061	880.15204	-1159.78357				-454.04834	404.66214	-1363.85095				-481.01321	66.46798	-1394.59778	
481	4.800				-660.57935	1335.97803	-1223.62183							-792.14233	1280.43823	-1366.81689	-483.48505	1284.92590	-1173.95288							-838.22510	942.76910	-1396.63477	-428.82428	938.56702	-1122.20032													-666.93964	882.59363	-1167.56091				-453.85211	403.16663	-1368.69775				-480.12900	66.45554	-1393.50757	
482	4.810				-658.25006	1337.90906	-1231.73145							-787.33783	1283.20691	-1378.78149	-480.99963	1285.96606	-1180.08191							-833.03784	944.44501	-1405.07983	-425.42487	940.74219	-1125.24695													-663.78497	883.91266	-1176.13232				-450.55157	404.01407	-1369.08728				-480.47751	65.70084	-1395.49561	
483	4.820				-654.04089	1338.01892	-1239.73010							-782.58008	1283.95679	-1386.50281	-478.15625	1287.58643	-1186.75232							-828.26459	944.65106	-1410.55237	-422.84167	942.45355	-1130.66919													-660.93054	884.90155	-1183.21912				-447.91504	403.04108	-1370.32178				-479.71286	66.63943	-1393.16235	
